<?xml version="1.0" encoding="UTF-8" standalone="no"?>
<!-- Created with Inkscape (http://www.inkscape.org/) -->

<svg
   xmlns:dc="http://purl.org/dc/elements/1.1/"
   xmlns:cc="http://creativecommons.org/ns#"
   xmlns:rdf="http://www.w3.org/1999/02/22-rdf-syntax-ns#"
   xmlns:svg="http://www.w3.org/2000/svg"
   xmlns="http://www.w3.org/2000/svg"
   xmlns:sodipodi="http://sodipodi.sourceforge.net/DTD/sodipodi-0.dtd"
   xmlns:inkscape="http://www.inkscape.org/namespaces/inkscape"
   width="1080"
   height="1080"
   id="svg2"
   version="1.1"
   inkscape:version="0.48.5 r10040"
   sodipodi:docname="New document 1">
  <defs
     id="defs4" />
  <sodipodi:namedview
     id="base"
     pagecolor="#ffffff"
     bordercolor="#666666"
     borderopacity="1.0"
     inkscape:pageopacity="0.0"
     inkscape:pageshadow="2"
     inkscape:zoom="0.5"
     inkscape:cx="176.3045"
     inkscape:cy="453.58306"
     inkscape:document-units="px"
     inkscape:current-layer="g3411"
     showgrid="false"
     inkscape:window-width="1920"
     inkscape:window-height="1014"
     inkscape:window-x="0"
     inkscape:window-y="27"
     inkscape:window-maximized="1" />
  <metadata
     id="metadata7">
    <rdf:RDF>
      <cc:Work
         rdf:about="">
        <dc:format>image/svg+xml</dc:format>
        <dc:type
           rdf:resource="http://purl.org/dc/dcmitype/StillImage" />
        <dc:title></dc:title>
      </cc:Work>
    </rdf:RDF>
  </metadata>
  <g
     inkscape:label="Layer 1"
     inkscape:groupmode="layer"
     id="layer1"
     transform="translate(0,27.637817)">
    <g
       id="g3387"
       transform="translate(73.75958,12.122343)">
      <g
         id="g3411"
         transform="matrix(2.13534,0,0,2.13534,-460.7887,-559.86543)">
        <g
           id="g3420"
           transform="matrix(0.94987642,0,0,0.94987642,21.975784,25.025002)">
          <path
             id="path3337"
             d="M 674.534,389.772 354.337,705.636 c 0,0 -163.84,48.837 -171.323,41.354 -7.483,-7.483 37.415,-175.261 37.415,-175.261 L 540.626,255.864 c 15.36,-15.754 40.172,-15.754 55.532,0 l 78.375,78.769 c 15.361,14.966 15.361,39.779 10e-4,55.139 z"
             style="fill:#4d4d4d"
             inkscape:connector-curvature="0" />
          <path
             sodipodi:nodetypes="ccsccccc"
             id="path3339"
             d="m 247.74807,611.23008 351.705,-351.704 -3.938,-3.938 c -15.36,-15.36 -40.172,-15.36 -55.532,0.394 L 220.5303,571.65469 c 0,0 -1.13923,3.73639 -2.71423,9.25039 l 29.932,30.325 z"
             style="fill:#666666"
             inkscape:connector-curvature="0" />
          <path
             sodipodi:nodetypes="ccccccc"
             id="path3341"
             d="m 677.97229,385.20457 c 13.70941,-18.39279 8.49379,-38.60695 -2.92821,-50.02795 l -8.11115,-7.93554 -352.05524,351.06007 30.72,30.326 c 4.332,-1.182 7.089,-1.969 8.271,-2.363 z"
             style="fill:#333333"
             inkscape:connector-curvature="0" />
          <path
             sodipodi:nodetypes="cccccccccc"
             id="path3343"
             d="m 182.62,745.809 2.363,2.363 c 18.511,2.757 160.44064,-39.50918 169.10564,-42.26618 l 0.26982,-0.51818 c 0,0 -8.68546,-42.28664 -16.56246,-49.76964 -7.877,-7.877 -42.142,-9.058 -50.018,-16.542 -7.877,-7.877 -8.665,-42.142 -16.935,-50.018 -7.877,-7.877 -48.049,-16.148 -50.018,-16.542 -0.002,-0.393 -41.356,153.6 -38.205,173.293 z"
             style="fill:#ffcaba"
             inkscape:connector-curvature="0" />
          <path
             id="path3345"
             d="m 181.89157,743.17343 c 2.757,-4.726 16.542,-29.145 88.222,-154.781 -7.877,-7.877 -48.049,-16.148 -50.018,-16.542 0.393,-0.393 -38.598,145.33 -38.204,171.323 z"
             style="fill:#ffdcd2"
             inkscape:connector-curvature="0" />
          <path
             sodipodi:nodetypes="ccccccc"
             id="path3347"
             d="m 182.26739,744.233 0,1.182 2.23882,3.02529 c 18.511,2.757 160.689,-39.385 169.354,-42.142 l 0.51818,-0.97351 c 0,0 -8.665,-42.22478 -16.542,-50.10078 -130.363,74.831 -152.024,87.04 -155.569,89.009 z"
             style="fill:#e5b5a7"
             inkscape:connector-curvature="0" />
          <path
             id="path3349"
             d="m 208.902,717.058 c -5.12,-5.12 -13.391,-9.058 -21.662,-9.846 -4.332,22.055 -7.089,38.203 -4.726,40.566 1.969,1.969 16.935,-0.394 36.628,-4.726 0,-9.846 -4.333,-20.086 -10.24,-25.994 z"
             style="fill:#666666"
             inkscape:connector-curvature="0" />
        </g>
      </g>
      <g
         id="g3351" />
      <g
         id="g3353" />
      <g
         id="g3355" />
      <g
         id="g3357" />
      <g
         id="g3359" />
      <g
         id="g3361" />
      <g
         id="g3363" />
      <g
         id="g3365" />
      <g
         id="g3367" />
      <g
         id="g3369" />
      <g
         id="g3371" />
      <g
         id="g3373" />
      <g
         id="g3375" />
      <g
         id="g3377" />
      <g
         id="g3379" />
    </g>
  </g>
</svg>
