<?xml version="1.0" encoding="UTF-8" standalone="no"?>
<!-- Created with Inkscape (http://www.inkscape.org/) -->

<svg
   xmlns:dc="http://purl.org/dc/elements/1.1/"
   xmlns:cc="http://creativecommons.org/ns#"
   xmlns:rdf="http://www.w3.org/1999/02/22-rdf-syntax-ns#"
   xmlns:svg="http://www.w3.org/2000/svg"
   xmlns="http://www.w3.org/2000/svg"
   xmlns:sodipodi="http://sodipodi.sourceforge.net/DTD/sodipodi-0.dtd"
   xmlns:inkscape="http://www.inkscape.org/namespaces/inkscape"
   width="1080"
   height="1080"
   id="svg2"
   version="1.1"
   inkscape:version="0.48.5 r10040"
   sodipodi:docname="settings.svg">
  <defs
     id="defs4" />
  <sodipodi:namedview
     id="base"
     pagecolor="#ffffff"
     bordercolor="#666666"
     borderopacity="1.0"
     inkscape:pageopacity="0.0"
     inkscape:pageshadow="2"
     inkscape:zoom="0.35355339"
     inkscape:cx="1060.3517"
     inkscape:cy="465.70901"
     inkscape:document-units="px"
     inkscape:current-layer="g3883"
     showgrid="false"
     inkscape:window-width="1362"
     inkscape:window-height="729"
     inkscape:window-x="0"
     inkscape:window-y="18"
     inkscape:window-maximized="0"
     showguides="true"
     inkscape:guide-bbox="true" />
  <metadata
     id="metadata7">
    <rdf:RDF>
      <cc:Work
         rdf:about="">
        <dc:format>image/svg+xml</dc:format>
        <dc:type
           rdf:resource="http://purl.org/dc/dcmitype/StillImage" />
        <dc:title></dc:title>
      </cc:Work>
    </rdf:RDF>
  </metadata>
  <g
     inkscape:label="Layer 1"
     inkscape:groupmode="layer"
     id="layer1"
     transform="translate(0,27.637817)">
    <g
       id="g3387"
       transform="translate(73.75958,12.122343)">
      <g
         id="g3411"
         transform="matrix(2.13534,0,0,2.13534,-447.82801,-562.02555)">
        <g
           id="g3503"
           transform="matrix(0.93278888,0,0,0.93278888,189.78161,253.84425)">
          <g
             id="g3467" />
          <g
             id="g3469" />
          <g
             id="g3471" />
          <g
             id="g3473" />
          <g
             id="g3475" />
          <g
             id="g3477" />
          <g
             id="g3479" />
          <g
             id="g3481" />
          <g
             id="g3483" />
          <g
             id="g3485" />
          <g
             id="g3487" />
          <g
             id="g3489" />
          <g
             id="g3491" />
          <g
             id="g3493" />
          <g
             id="g3495" />
          <g
             transform="matrix(1.2755201,0,0,1.2755201,18.33266,0.70615575)"
             id="g3">
            <g
               id="g3852"
               transform="translate(-21.866697,-4.4303176)">
              <g
                 id="g3925"
                 transform="matrix(1.3010974,0,0,1.3010974,8.1008882,7.3979448)">
                <g
                   id="g3883">
                  <path
                     style="fill:#4d4d4d;stroke:#000000;stroke-width:0;stroke-linecap:butt;stroke-linejoin:miter;stroke-miterlimit:4;stroke-opacity:1;stroke-dasharray:none"
                     d="m 3.3267412,122.33815 c 8.6398898,-7.21199 23.6655998,10.83272 33.3704498,5.13392 11.28419,-6.62622 17.0982,-24.1587 13.69044,-36.793053 -2.69138,-9.978364 -23.35425,-9.362723 -23.95827,-19.680012 -1.22607,-20.942659 22.71558,-46.878825 43.63828,-45.349586 12.23503,0.894258 9.39819,27.367014 21.39132,29.947839 13.869039,2.984506 30.964519,-8.457418 36.793059,-21.391313 4.18259,-9.281415 -12.39317,-22.033771 -5.98957,-29.9478425 13.99492,-17.2959925 52.88652,-18.2644105 66.74091,-0.855653 7.4953,9.4182335 -14.08852,24.3915895 -8.55653,35.0817565 6.06113,11.712681 23.97597,17.651941 36.79306,14.546094 11.78651,-2.856111 11.84192,-26.858503 23.95828,-27.380881 20.55614,-0.886244 46.25131,22.282579 44.49393,42.782629 -0.99999,11.66504 -25.86897,8.424609 -29.09219,19.680009 -3.86674,13.502583 4.74501,31.848303 17.11305,38.504353 9.16637,4.93302 22.90592,-11.91513 30.80351,-5.13391 16.23089,13.93655 15.5913,50.49307 -0.85568,64.17394 -7.78653,6.47697 -21.1391,-10.13265 -29.94783,-5.13391 -11.70094,6.64 -17.92255,24.62561 -14.54609,37.64871 2.79532,10.78163 25.51669,10.25427 25.66958,21.39132 3.20046,19.76 -29.68132,50.68686 -43.63828,40.21567 -10.08123,0.4669 -12.37337,-18.44735 -22.24697,-20.53566 -12.97181,-2.7436 -30.49365,1.67234 -37.64872,12.83479 -6.03424,9.41388 10.67866,24.86261 3.42261,33.37044 -13.16162,15.43225 -46.67335,18.02371 -60.75133,3.42261 -8.54935,-8.86704 9.86884,-26.29725 3.42261,-36.79305 -6.90193,-11.23778 -24.14456,-18.27967 -36.793059,-14.5461 -9.41264,2.77842 -7.35348,22.92486 -17.11306,23.95828 -21.88381,2.31721 -49.23149,-18.4186 -46.20524,-40.21568 1.40328,-10.1073 21.17038,-8.4371 24.81393,-17.9687 5.25736,-13.75338 -3.68266,-33.41161 -16.2574,-41.07132 -9.79199,-5.96465 -25.82962,11.23023 -34.2261098,3.4226 -15.4620502,-14.37767 -14.4976102,-49.78818 1.71131,-63.31829 z"
                     id="path3967"
                     inkscape:connector-curvature="0"
                     sodipodi:nodetypes="sssssssssssssssssssccssssssssssss" />
                  <path
                     sodipodi:type="arc"
                     style="fill:#4d4d4d;fill-opacity:1;stroke:#000000;stroke-width:0;stroke-miterlimit:4;stroke-opacity:1;stroke-dasharray:none"
                     id="path3981"
                     sodipodi:cx="907.92511"
                     sodipodi:cy="525.6283"
                     sodipodi:rx="390.32294"
                     sodipodi:ry="390.32294"
                     d="m 1298.248,525.6283 a 390.32294,390.32294 0 1 1 -780.64583,0 390.32294,390.32294 0 1 1 780.64583,0 z"
                     transform="matrix(0.30799929,0,0,0.30799929,-126.17902,-7.2226501)" />
                  <path
                     sodipodi:type="arc"
                     style="fill:#999999;fill-opacity:1;stroke:#000000;stroke-opacity:1"
                     id="path3971"
                     sodipodi:cx="-60.811184"
                     sodipodi:cy="476.1308"
                     sodipodi:rx="193.74725"
                     sodipodi:ry="193.74725"
                     d="m 132.93607,476.1308 a 193.74725,193.74725 0 1 1 -387.49451,0 193.74725,193.74725 0 1 1 387.49451,0 z"
                     transform="matrix(0.3135313,0,0,0.3135313,172.52748,5.3885836)" />
                  <path
                     transform="matrix(0.20340714,0,0,0.20340714,165.8307,57.822088)"
                     d="m 132.93607,476.1308 a 193.74725,193.74725 0 1 1 -387.49451,0 193.74725,193.74725 0 1 1 387.49451,0 z"
                     sodipodi:ry="193.74725"
                     sodipodi:rx="193.74725"
                     sodipodi:cy="476.1308"
                     sodipodi:cx="-60.811184"
                     id="path3973"
                     style="fill:#ffffff;fill-opacity:1;stroke:#000000;stroke-opacity:1"
                     sodipodi:type="arc" />
                </g>
                <g
                   id="g3889" />
                <g
                   id="g3891" />
                <g
                   id="g3893" />
                <g
                   id="g3895" />
                <g
                   id="g3897" />
                <g
                   id="g3899" />
                <g
                   id="g3901" />
                <g
                   id="g3903" />
                <g
                   id="g3905" />
                <g
                   id="g3907" />
                <g
                   id="g3909" />
                <g
                   id="g3911" />
                <g
                   id="g3913" />
                <g
                   id="g3915" />
                <g
                   id="g3917" />
              </g>
            </g>
          </g>
        </g>
      </g>
      <g
         id="g3351" />
      <g
         id="g3353" />
      <g
         id="g3355" />
      <g
         id="g3357" />
      <g
         id="g3359" />
      <g
         id="g3361" />
      <g
         id="g3363" />
      <g
         id="g3365" />
      <g
         id="g3367" />
      <g
         id="g3369" />
      <g
         id="g3371" />
      <g
         id="g3373" />
      <g
         id="g3375" />
      <g
         id="g3377" />
      <g
         id="g3379" />
    </g>
  </g>
</svg>
