<?xml version="1.0" encoding="UTF-8" standalone="no"?>
<!-- Created with Inkscape (http://www.inkscape.org/) -->

<svg
   xmlns:dc="http://purl.org/dc/elements/1.1/"
   xmlns:cc="http://creativecommons.org/ns#"
   xmlns:rdf="http://www.w3.org/1999/02/22-rdf-syntax-ns#"
   xmlns:svg="http://www.w3.org/2000/svg"
   xmlns="http://www.w3.org/2000/svg"
   xmlns:sodipodi="http://sodipodi.sourceforge.net/DTD/sodipodi-0.dtd"
   xmlns:inkscape="http://www.inkscape.org/namespaces/inkscape"
   width="1080"
   height="1080"
   id="svg2"
   version="1.1"
   inkscape:version="0.48.5 r10040"
   sodipodi:docname="settings-2.svg">
  <defs
     id="defs4" />
  <sodipodi:namedview
     id="base"
     pagecolor="#ffffff"
     bordercolor="#666666"
     borderopacity="1.0"
     inkscape:pageopacity="0.0"
     inkscape:pageshadow="2"
     inkscape:zoom="0.35355339"
     inkscape:cx="264.14128"
     inkscape:cy="538.07093"
     inkscape:document-units="px"
     inkscape:current-layer="g4123"
     showgrid="false"
     inkscape:window-width="1362"
     inkscape:window-height="729"
     inkscape:window-x="0"
     inkscape:window-y="18"
     inkscape:window-maximized="0"
     showguides="true"
     inkscape:guide-bbox="true" />
  <metadata
     id="metadata7">
    <rdf:RDF>
      <cc:Work
         rdf:about="">
        <dc:format>image/svg+xml</dc:format>
        <dc:type
           rdf:resource="http://purl.org/dc/dcmitype/StillImage" />
        <dc:title></dc:title>
      </cc:Work>
    </rdf:RDF>
  </metadata>
  <g
     inkscape:label="Layer 1"
     inkscape:groupmode="layer"
     id="layer1"
     transform="translate(0,27.637817)">
    <g
       id="g3387"
       transform="translate(73.75958,12.122343)">
      <g
         id="g3411"
         transform="matrix(2.13534,0,0,2.13534,-447.82801,-562.02555)">
        <g
           id="g3503"
           transform="matrix(0.93278888,0,0,0.93278888,189.78161,253.84425)">
          <g
             id="g3467" />
          <g
             id="g3469" />
          <g
             id="g3471" />
          <g
             id="g3473" />
          <g
             id="g3475" />
          <g
             id="g3477" />
          <g
             id="g3479" />
          <g
             id="g3481" />
          <g
             id="g3483" />
          <g
             id="g3485" />
          <g
             id="g3487" />
          <g
             id="g3489" />
          <g
             id="g3491" />
          <g
             id="g3493" />
          <g
             id="g3495" />
          <g
             transform="matrix(1.2755201,0,0,1.2755201,18.33266,0.70615575)"
             id="g3">
            <g
               id="g3852"
               transform="translate(-21.866697,-4.4303176)">
              <g
                 id="g3925"
                 transform="matrix(1.3010974,0,0,1.3010974,8.1008882,7.3979448)">
                <g
                   id="g3883">
                  <g
                     id="g4057"
                     transform="matrix(0,-0.79777998,0.79777998,0,9.1975173,295.01435)">
                    <g
                       id="g4003">
                      <g
                         id="g4185"
                         transform="matrix(0,1.3074646,-1.3074646,0,373.78351,-16.538277)">
                        <g
                           id="g4123">
                          <path
                             id="path4125"
                             d="m 17.317644,60.940047 c -7.146,0 -12.9389998,-5.791 -12.9429998,-12.938 -0.005,-7.148 5.7869998,-12.946 12.9359998,-12.951 l 268.127996,-0.149 c 0.002,0 0.006,0 0.008,0 7.145,0 12.939,5.79 12.943,12.937 0.004,7.148 -5.789,12.947 -12.936,12.951 l -268.128996,0.15 c -10e-4,0 -0.005,0 -0.007,0 z"
                             style="fill:#333333"
                             inkscape:connector-curvature="0" />
                          <path
                             id="path4133"
                             d="m 15.787,267.94054 c -7.146,0 -12.939,-5.79 -12.944,-12.937 -0.003,-7.149 5.788,-12.948 12.937,-12.951 l 268.127,-0.15 c 0.002,0 0.006,0 0.008,0 7.147,0 12.94,5.791 12.943,12.938 0.006,7.15 -5.787,12.947 -12.936,12.951 l -268.128,0.148 c -0.002,10e-4 -0.005,10e-4 -0.007,10e-4 z"
                             style="fill:#333333"
                             inkscape:connector-curvature="0" />
                          <g
                             id="g4127"
                             transform="translate(-75.633491,204.99304)">
                            <path
                               id="path4129"
                               d="m 231.466,0.001 -12.021,0.006 c -27.572,0.016 -49.912,22.38 -49.896,49.954 0.016,27.572 22.381,49.912 49.951,49.896 l 12.021,-0.006 -0.055,-99.85 z"
                               style="fill:#009638"
                               inkscape:connector-curvature="0" />
                            <circle
                               id="circle4131"
                               r="49.925999"
                               cy="49.925999"
                               cx="231.493"
                               style="fill:#00bd5e"
                               sodipodi:cx="231.493"
                               sodipodi:cy="49.925999"
                               sodipodi:rx="49.925999"
                               sodipodi:ry="49.925999"
                               d="m 281.41899,49.925999 c 0,27.573367 -22.35263,49.925998 -49.92599,49.925998 -27.57337,0 -49.926,-22.352631 -49.926,-49.925998 C 181.567,22.352631 203.91963,0 231.493,0 c 27.57336,0 49.92599,22.352631 49.92599,49.925999 z" />
                          </g>
                          <g
                             id="g4135"
                             transform="translate(-115.75614,-201.74248)">
                            <path
                               id="path4137"
                               d="m 202.935,199.735 -12.021,0.008 c -27.57,0.014 -49.912,22.377 -49.897,49.951 0.016,27.574 22.381,49.913 49.953,49.898 l 12.02,-0.007 -0.055,-99.85 z"
                               style="fill:#bf534f"
                               inkscape:connector-curvature="0" />
                            <circle
                               id="circle4139"
                               r="49.924999"
                               cy="249.661"
                               cx="202.961"
                               style="fill:#ff6d68"
                               sodipodi:cx="202.961"
                               sodipodi:cy="249.661"
                               sodipodi:rx="49.924999"
                               sodipodi:ry="49.924999"
                               d="m 252.886,249.661 c 0,27.57281 -22.35219,49.92499 -49.925,49.92499 -27.57282,0 -49.925,-22.35218 -49.925,-49.92499 0,-27.57282 22.35218,-49.925 49.925,-49.925 27.57281,0 49.925,22.35218 49.925,49.925 z" />
                          </g>
                          <path
                             id="path4141"
                             d="m 15.734,163.4137 c -7.146,0 -12.94,-5.79 -12.944,-12.937 -0.004,-7.149 5.788,-12.948 12.937,-12.951 l 268.128,-0.149 c 0.002,0 0.006,0 0.008,0 7.147,0 12.94,5.79 12.943,12.937 0.004,7.149 -5.789,12.948 -12.938,12.951 l -268.127,0.149 c -0.002,0 -0.005,0 -0.007,0 z"
                             style="fill:#333333"
                             inkscape:connector-curvature="0" />
                          <g
                             id="g4143"
                             transform="translate(124.84492,-2.9257803)">
                            <path
                               id="path4145"
                               d="M 101.703,103.392 89.682,103.4 c -27.572,0.014 -49.913,22.378 -49.897,49.951 0.015,27.573 22.381,49.914 49.953,49.899 l 12.021,-0.008 -0.056,-99.85 z"
                               style="fill:#005fad"
                               inkscape:connector-curvature="0" />
                            <circle
                               id="circle4147"
                               r="49.924999"
                               cy="153.317"
                               cx="101.73"
                               style="fill:#0071ce"
                               sodipodi:cx="101.73"
                               sodipodi:cy="153.317"
                               sodipodi:rx="49.924999"
                               sodipodi:ry="49.924999"
                               d="m 151.655,153.317 c 0,27.57282 -22.35218,49.925 -49.925,49.925 -27.572812,0 -49.924996,-22.35218 -49.924996,-49.925 0,-27.57281 22.352184,-49.925 49.924996,-49.925 27.57282,0 49.925,22.35219 49.925,49.925 z" />
                          </g>
                        </g>
                        <g
                           id="g4149" />
                        <g
                           id="g4151" />
                        <g
                           id="g4153" />
                        <g
                           id="g4155" />
                        <g
                           id="g4157" />
                        <g
                           id="g4159" />
                        <g
                           id="g4161" />
                        <g
                           id="g4163" />
                        <g
                           id="g4165" />
                        <g
                           id="g4167" />
                        <g
                           id="g4169" />
                        <g
                           id="g4171" />
                        <g
                           id="g4173" />
                        <g
                           id="g4175" />
                        <g
                           id="g4177" />
                      </g>
                    </g>
                    <g
                       id="g4021" />
                    <g
                       id="g4023" />
                    <g
                       id="g4025" />
                    <g
                       id="g4027" />
                    <g
                       id="g4029" />
                    <g
                       id="g4031" />
                    <g
                       id="g4033" />
                    <g
                       id="g4035" />
                    <g
                       id="g4037" />
                    <g
                       id="g4039" />
                    <g
                       id="g4041" />
                    <g
                       id="g4043" />
                    <g
                       id="g4045" />
                    <g
                       id="g4047" />
                    <g
                       id="g4049" />
                  </g>
                </g>
                <g
                   id="g3889" />
                <g
                   id="g3891" />
                <g
                   id="g3893" />
                <g
                   id="g3895" />
                <g
                   id="g3897" />
                <g
                   id="g3899" />
                <g
                   id="g3901" />
                <g
                   id="g3903" />
                <g
                   id="g3905" />
                <g
                   id="g3907" />
                <g
                   id="g3909" />
                <g
                   id="g3911" />
                <g
                   id="g3913" />
                <g
                   id="g3915" />
                <g
                   id="g3917" />
              </g>
            </g>
          </g>
        </g>
      </g>
      <g
         id="g3351" />
      <g
         id="g3353" />
      <g
         id="g3355" />
      <g
         id="g3357" />
      <g
         id="g3359" />
      <g
         id="g3361" />
      <g
         id="g3363" />
      <g
         id="g3365" />
      <g
         id="g3367" />
      <g
         id="g3369" />
      <g
         id="g3371" />
      <g
         id="g3373" />
      <g
         id="g3375" />
      <g
         id="g3377" />
      <g
         id="g3379" />
    </g>
  </g>
</svg>
